<!-- Generated by IcoMoon.io -->
<svg version="1.1" xmlns="http://www.w3.org/2000/svg" width="1024" height="1024" viewBox="0 0 1024 1024">
<title></title>
<g id="icomoon-ignore">
</g>
<path d="M512.227 628.219l387.257-387.418c13.204-13.279 31.47-21.483 51.665-21.483s38.48 8.225 51.663 21.481l0.002 0.002c13.099 13.322 21.186 31.618 21.186 51.81s-8.087 38.484-21.191 51.813l-438.887 438.932c-13.204 13.172-31.426 21.326-51.548 21.326-19.059 0-36.403-7.311-49.395-19.273l0.044 0.042-441.513-440.717c-13.282-13.246-21.509-31.573-21.509-51.81 0-40.422 32.752-73.172 73.172-73.172 20.165 0 38.445 8.161 51.665 21.364l387.416 387.081z"></path>
</svg>
