<!-- Generated by IcoMoon.io -->
<svg version="1.1" xmlns="http://www.w3.org/2000/svg" width="1024" height="1024" viewBox="0 0 1024 1024">
<title></title>
<g id="icomoon-ignore">
</g>
<path d="M52.641 1024c-0.076 0-0.166 0.001-0.256 0.001-29.118 0-52.723-23.605-52.723-52.723 0-14.725 6.037-28.040 15.77-37.606l0.008-0.007 918.635-918.225c9.34-8.555 21.838-13.798 35.561-13.798 29.118 0 52.723 23.605 52.723 52.723 0 13.722-5.242 26.22-13.834 35.6l0.036-0.040-918.635 918.635c-9.547 9.533-22.726 15.431-37.283 15.439h-0.002z"></path>
<path d="M971.359 1024c-0.038 0-0.083 0-0.129 0-14.493 0-27.608-5.903-37.070-15.436l-918.72-918.228c-9.619-9.568-15.572-22.813-15.572-37.448 0-29.169 23.646-52.815 52.815-52.815 14.533 0 27.696 5.87 37.245 15.369l918.633 918.633c9.741 9.573 15.778 22.888 15.778 37.613 0 29.118-23.605 52.723-52.723 52.723-0.090 0-0.18 0-0.27-0.001h0.014z"></path>
</svg>
